<?xml version="1.0" encoding="UTF-8" standalone="no"?><!DOCTYPE svg PUBLIC "-//W3C//DTD SVG 1.1//EN" "http://www.w3.org/Graphics/SVG/1.1/DTD/svg11.dtd"><svg width="100%" height="100%" viewBox="0 0 279 71" version="1.1" xmlns="http://www.w3.org/2000/svg" xmlns:xlink="http://www.w3.org/1999/xlink" xml:space="preserve" style="fill-rule:evenodd;clip-rule:evenodd;stroke-linejoin:round;stroke-miterlimit:1.41421;"><g><path d="M107.212,62.997c-0.021,0.612 -0.063,1.243 -0.143,1.912l2.49,-4.513l-0.274,-1.472l2.5,-0.383l0.909,6.254l1.15,-3.921c0.091,-0.383 0.138,-0.669 0.149,-0.956c0.009,-0.287 -0.018,-0.593 -0.118,-1.013l2.618,-0.498c0.095,0.536 0.156,0.995 0.14,1.473c-0.023,0.631 -0.181,1.319 -0.619,2.352l-2.108,5.66l-3.117,0l-0.656,-4.226l-2.441,4.226l-3.022,0c0.119,-3.939 -0.024,-6.406 -0.297,-8.987l2.595,-0.402c0.198,1.434 0.301,2.868 0.244,4.494Z" style="fill:#0e69ae;fill-rule:nonzero;"/><path d="M123.443,60.836c-1.208,0.65 -1.656,0.899 -2.75,1.568l-1.167,5.488l-2.695,0l1.903,-9.083l2.385,-0.402l-0.102,1.262c0.918,-0.535 1.658,-0.918 2.473,-1.262l-0.047,2.429Z" style="fill:#0e69ae;fill-rule:nonzero;"/><path d="M125.914,54.678l2.786,-0.382l-0.618,2.868l-2.766,0.383l0.598,-2.869Zm-0.871,4.112l2.787,-0.383l-2.014,9.485l-2.695,0l1.922,-9.102Z" style="fill:#0e69ae;fill-rule:nonzero;"/><path d="M132.794,60.74l-0.984,4.647c-0.022,0.096 -0.045,0.191 -0.047,0.249c-0.004,0.134 0.07,0.191 0.262,0.191c0.459,0 0.98,-0.191 1.466,-0.382l0.469,1.874c-0.779,0.42 -1.9,0.765 -2.99,0.765c-1.357,0 -2.061,-0.651 -2.022,-1.76c0.003,-0.134 0.029,-0.268 0.052,-0.401l1.099,-5.183l-1.376,0l0.456,-2.16l1.378,0l0.46,-2.238l2.785,-0.382l-0.55,2.62l2.218,0l-0.611,2.16l-2.065,0Z" style="fill:#0e69ae;fill-rule:nonzero;"/><path d="M140.911,61.008c0.011,-0.325 -0.268,-0.536 -0.765,-0.536c-0.976,0 -1.282,0.555 -1.442,1.32l-0.137,0.651c0.463,-0.116 0.674,-0.154 1.234,-0.326c0.735,-0.21 1.09,-0.554 1.11,-1.109Zm-4.907,0.899c0.456,-2.142 1.461,-3.519 4.406,-3.519c1.758,0 3.07,0.765 3.015,2.333c-0.063,1.817 -1.029,2.659 -3.347,3.347c-1.141,0.344 -1.16,0.344 -1.97,0.554l-0.138,0.65c-0.069,0.345 -0.042,0.651 0.455,0.651c0.976,0 2.408,-0.478 3.689,-1.033l0.449,1.912c-1.153,0.707 -2.951,1.282 -4.595,1.282c-1.931,0 -2.724,-0.842 -2.669,-2.429c0.012,-0.344 0.065,-0.727 0.155,-1.128l0.55,-2.62Z" style="fill:#0e69ae;fill-rule:nonzero;"/><path d="M150.381,54.774l2.786,-0.382l-2.842,13.5l-2.696,0l2.752,-13.118Z" style="fill:#0e69ae;fill-rule:nonzero;"/><path d="M158.422,61.008c0.012,-0.325 -0.267,-0.536 -0.764,-0.536c-0.976,0 -1.283,0.555 -1.443,1.32l-0.136,0.651c0.463,-0.116 0.673,-0.154 1.234,-0.326c0.734,-0.21 1.09,-0.554 1.109,-1.109Zm-4.906,0.899c0.456,-2.142 1.461,-3.519 4.405,-3.519c1.759,0 3.071,0.765 3.016,2.333c-0.063,1.817 -1.029,2.659 -3.348,3.347c-1.14,0.344 -1.159,0.344 -1.969,0.554l-0.138,0.65c-0.069,0.345 -0.042,0.651 0.455,0.651c0.976,0 2.407,-0.478 3.688,-1.033l0.45,1.912c-1.154,0.707 -2.951,1.282 -4.595,1.282c-1.932,0 -2.725,-0.842 -2.669,-2.429c0.012,-0.344 0.064,-0.727 0.154,-1.128l0.551,-2.62Z" style="fill:#0e69ae;fill-rule:nonzero;"/><path d="M161.16,67.471l0.586,-1.988c0.698,0.249 1.493,0.478 2.506,0.478c0.899,0 0.965,-0.268 1.057,-0.708c0.091,-0.42 -0.169,-0.65 -1.201,-1.204c-1.913,-1.033 -1.966,-1.722 -1.668,-3.117c0.433,-2.008 1.045,-2.544 3.626,-2.544c0.879,0 2,0.192 2.757,0.44l-0.512,2.027c-0.682,-0.191 -1.688,-0.344 -2.339,-0.344c-0.803,0 -0.922,0.096 -1.035,0.592c-0.091,0.441 0.001,0.536 0.883,1.014c2.101,1.148 2.413,1.549 2.094,3.021c-0.456,2.104 -1.097,2.946 -3.889,2.946c-0.86,0 -2.056,-0.249 -2.865,-0.613Z" style="fill:#0e69ae;fill-rule:nonzero;"/><path d="M168.884,67.471l0.586,-1.988c0.698,0.249 1.493,0.478 2.507,0.478c0.898,0 0.965,-0.268 1.057,-0.708c0.091,-0.42 -0.169,-0.65 -1.201,-1.204c-1.914,-1.033 -1.966,-1.722 -1.668,-3.117c0.432,-2.008 1.044,-2.544 3.626,-2.544c0.878,0 2,0.192 2.756,0.44l-0.511,2.027c-0.682,-0.191 -1.689,-0.344 -2.339,-0.344c-0.803,0 -0.922,0.096 -1.035,0.592c-0.091,0.441 0.001,0.536 0.882,1.014c2.102,1.148 2.414,1.549 2.094,3.021c-0.456,2.104 -1.096,2.946 -3.888,2.946c-0.861,0 -2.056,-0.249 -2.866,-0.613Z" style="fill:#0e69ae;fill-rule:nonzero;"/><path d="M176.271,69.976l1.546,-2.084l-1.014,0l0.665,-3.174l2.696,0l-0.73,3.404l-2.216,2.638l-0.947,-0.784Z" style="fill:#0e69ae;fill-rule:nonzero;"/><path d="M188.544,65.1c-0.113,0.498 0.013,0.727 0.491,0.727c0.956,0 1.661,-0.497 2.193,-0.956l0.871,-4.15c-0.304,-0.057 -0.666,-0.076 -1.048,-0.076c-1.396,0 -1.709,0.745 -1.912,1.644l-0.595,2.811Zm2.464,2.792l-0.049,-0.803c-0.688,0.555 -1.659,0.995 -2.998,0.995c-2.026,0 -2.48,-1.224 -2.044,-3.309l0.527,-2.505c0.46,-2.218 1.092,-3.882 5.011,-3.882c0.287,0 0.878,0.039 1.125,0.096l0.779,-3.71l2.766,-0.382l-2.841,13.5l-2.276,0Z" style="fill:#0e69ae;fill-rule:nonzero;"/><path d="M202.121,61.697c0.024,-0.689 -0.383,-1.052 -1.263,-1.052c-1.014,0 -1.625,0.516 -1.809,1.434l-0.482,2.314c-0.025,0.134 -0.048,0.267 -0.052,0.382c-0.023,0.67 0.384,1.052 1.264,1.052c1.032,0 1.623,-0.516 1.808,-1.434l0.483,-2.314c0.023,-0.134 0.047,-0.268 0.051,-0.382Zm-6.329,3.27c0.008,-0.211 0.036,-0.44 0.082,-0.651l0.458,-2.16c0.502,-2.391 1.718,-3.768 4.968,-3.768c2.505,0 3.582,1.435 3.525,3.098c-0.008,0.211 -0.035,0.44 -0.081,0.67l-0.457,2.16c-0.481,2.238 -1.605,3.768 -4.989,3.768c-2.371,0 -3.564,-1.416 -3.506,-3.117Z" style="fill:#0e69ae;fill-rule:nonzero;"/><path d="M221.283,61.563c0.023,-0.115 0.046,-0.211 0.048,-0.287c0.006,-0.192 -0.086,-0.268 -0.354,-0.268c-0.497,0 -1.681,0.497 -2.459,0.899l-1.261,5.985l-2.676,0l1.33,-6.329c0.022,-0.115 0.046,-0.211 0.047,-0.287c0.007,-0.192 -0.085,-0.268 -0.353,-0.268c-0.497,0 -1.7,0.497 -2.44,0.879l-1.261,6.005l-2.696,0l1.905,-9.083l2.384,-0.402l-0.055,1.033c1.477,-0.689 2.637,-1.052 3.708,-1.052c0.917,0 1.381,0.402 1.567,1.09c1.444,-0.822 2.735,-1.09 3.805,-1.09c1.243,0 1.677,0.708 1.636,1.893c-0.012,0.326 -0.044,0.689 -0.133,1.071l-1.376,6.54l-2.696,0l1.33,-6.329Z" style="fill:#0e69ae;fill-rule:nonzero;"/><path d="M231.39,61.697c0.025,-0.689 -0.383,-1.052 -1.263,-1.052c-1.013,0 -1.625,0.516 -1.808,1.434l-0.483,2.314c-0.024,0.134 -0.047,0.267 -0.051,0.382c-0.024,0.67 0.383,1.052 1.263,1.052c1.033,0 1.623,-0.516 1.809,-1.434l0.482,-2.314c0.024,-0.134 0.047,-0.268 0.051,-0.382Zm-6.328,3.27c0.008,-0.211 0.035,-0.44 0.081,-0.651l0.458,-2.16c0.503,-2.391 1.719,-3.768 4.969,-3.768c2.505,0 3.582,1.435 3.524,3.098c-0.008,0.211 -0.035,0.44 -0.081,0.67l-0.457,2.16c-0.48,2.238 -1.604,3.768 -4.988,3.768c-2.371,0 -3.565,-1.416 -3.506,-3.117Z" style="fill:#0e69ae;fill-rule:nonzero;"/><path d="M241.248,60.836c-1.208,0.65 -1.657,0.899 -2.75,1.568l-1.167,5.488l-2.696,0l1.905,-9.083l2.383,-0.402l-0.101,1.262c0.918,-0.535 1.658,-0.918 2.472,-1.262l-0.046,2.429Z" style="fill:#0e69ae;fill-rule:nonzero;"/><path d="M246.767,61.008c0.012,-0.325 -0.267,-0.536 -0.765,-0.536c-0.975,0 -1.282,0.555 -1.442,1.32l-0.137,0.651c0.463,-0.116 0.674,-0.154 1.235,-0.326c0.734,-0.21 1.09,-0.554 1.109,-1.109Zm-4.906,0.899c0.456,-2.142 1.461,-3.519 4.405,-3.519c1.759,0 3.07,0.765 3.016,2.333c-0.064,1.817 -1.03,2.659 -3.349,3.347c-1.14,0.344 -1.158,0.344 -1.969,0.554l-0.137,0.65c-0.07,0.345 -0.042,0.651 0.455,0.651c0.975,0 2.407,-0.478 3.688,-1.033l0.449,1.912c-1.153,0.707 -2.951,1.282 -4.594,1.282c-1.932,0 -2.725,-0.842 -2.669,-2.429c0.011,-0.344 0.064,-0.727 0.154,-1.128l0.551,-2.62Z" style="fill:#0e69ae;fill-rule:nonzero;"/><path d="M250.384,64.718l2.696,0l-0.665,3.174l-2.696,0l0.665,-3.174Z" style="fill:#0e69ae;fill-rule:nonzero;"/><path d="M3.27,13.455c-4.557,6.547 -3.993,15.065 -0.508,22.022c0.078,0.17 0.168,0.33 0.254,0.494c0.048,0.107 0.104,0.213 0.164,0.318c0.026,0.057 0.067,0.121 0.101,0.177c0.056,0.114 0.115,0.218 0.175,0.327c0.112,0.188 0.224,0.38 0.336,0.567c0.063,0.105 0.124,0.209 0.194,0.314c0.119,0.201 0.258,0.4 0.381,0.602c0.056,0.086 0.108,0.17 0.168,0.254c0.179,0.273 0.359,0.542 0.556,0.806c0,0.008 0.008,0.015 0.015,0.019c0.03,0.045 0.063,0.088 0.093,0.129c0.168,0.229 0.336,0.453 0.512,0.675c0.06,0.082 0.126,0.164 0.186,0.245c0.161,0.194 0.318,0.388 0.474,0.58c0.06,0.069 0.12,0.142 0.183,0.213c0.209,0.252 0.429,0.502 0.654,0.749c0,0.003 0.007,0.008 0.011,0.014c0.007,0.009 0.014,0.019 0.03,0.028c0.216,0.237 0.436,0.47 0.66,0.702c0.071,0.071 0.142,0.14 0.22,0.215c0.172,0.173 0.344,0.349 0.527,0.52c0.074,0.071 0.149,0.14 0.22,0.209c0.239,0.224 0.478,0.448 0.728,0.663c0.003,0.004 0.007,0.006 0.011,0.009c0.041,0.036 0.086,0.071 0.123,0.106c0.22,0.189 0.441,0.375 0.664,0.56c0.09,0.075 0.18,0.146 0.269,0.219c0.187,0.147 0.373,0.289 0.56,0.431c0.097,0.073 0.194,0.147 0.295,0.224c0.202,0.151 0.411,0.298 0.616,0.444c0.074,0.054 0.149,0.108 0.228,0.158c0.018,0.017 0.041,0.032 0.059,0.047c0.205,0.135 0.4,0.265 0.601,0.398c0.09,0.057 0.176,0.114 0.262,0.171c0.313,0.2 0.626,0.392 0.937,0.579c0.089,0.047 0.178,0.097 0.264,0.147c0.232,0.135 0.467,0.267 0.706,0.394c0.13,0.073 0.261,0.137 0.395,0.203c0.161,0.088 0.329,0.178 0.501,0.266c0.041,0.016 0.082,0.031 0.119,0.052c0.071,0.032 0.138,0.067 0.205,0.1c0.262,0.129 0.53,0.251 0.807,0.374c0.052,0.024 0.108,0.046 0.164,0.075c0.309,0.134 0.619,0.263 0.937,0.388c0.074,0.028 0.149,0.061 0.227,0.087c0.288,0.113 0.586,0.222 0.881,0.329c0.038,0.015 0.071,0.026 0.108,0.039c0.329,0.112 0.653,0.218 0.986,0.321c0.078,0.023 0.157,0.051 0.239,0.071c0.339,0.103 0.668,0.222 1.015,0.288c22.032,4.016 28.434,-13.242 28.434,-13.242c-5.379,7 -14.923,8.85 -23.963,6.793c-0.336,-0.076 -0.668,-0.182 -1.007,-0.283c-0.079,-0.023 -0.168,-0.049 -0.247,-0.076c-0.328,-0.1 -0.653,-0.206 -0.97,-0.314c-0.045,-0.015 -0.093,-0.032 -0.138,-0.051c-0.287,-0.098 -0.571,-0.207 -0.855,-0.317c-0.078,-0.033 -0.16,-0.062 -0.239,-0.091c-0.314,-0.123 -0.623,-0.256 -0.925,-0.389c-0.068,-0.024 -0.124,-0.052 -0.187,-0.078c-0.265,-0.121 -0.519,-0.24 -0.777,-0.364c-0.078,-0.033 -0.149,-0.071 -0.227,-0.11c-0.202,-0.095 -0.403,-0.202 -0.601,-0.306c-0.138,-0.071 -0.273,-0.136 -0.403,-0.209c-0.243,-0.13 -0.486,-0.269 -0.728,-0.403c-0.075,-0.051 -0.157,-0.094 -0.243,-0.14c-0.313,-0.186 -0.631,-0.379 -0.94,-0.577c-0.09,-0.056 -0.172,-0.112 -0.254,-0.17c-0.228,-0.143 -0.452,-0.294 -0.672,-0.444c-0.071,-0.05 -0.142,-0.102 -0.216,-0.155c-0.213,-0.149 -0.422,-0.3 -0.635,-0.455c-0.09,-0.071 -0.183,-0.142 -0.28,-0.213c-0.19,-0.147 -0.381,-0.293 -0.571,-0.446c-0.082,-0.069 -0.168,-0.136 -0.25,-0.203c-0.246,-0.198 -0.478,-0.396 -0.713,-0.601c-0.023,-0.025 -0.056,-0.045 -0.082,-0.066c-0.25,-0.223 -0.5,-0.453 -0.747,-0.681c-0.075,-0.071 -0.137,-0.136 -0.212,-0.203c-0.179,-0.176 -0.359,-0.347 -0.534,-0.525c-0.075,-0.074 -0.142,-0.143 -0.213,-0.214c-0.224,-0.226 -0.444,-0.459 -0.66,-0.698c-0.012,-0.01 -0.023,-0.02 -0.034,-0.034c-0.228,-0.25 -0.448,-0.503 -0.668,-0.761c-0.06,-0.069 -0.116,-0.14 -0.175,-0.207c-0.161,-0.198 -0.322,-0.398 -0.486,-0.596c-0.052,-0.076 -0.112,-0.149 -0.172,-0.224c-0.19,-0.244 -0.373,-0.488 -0.556,-0.74c-5.016,-6.844 -6.826,-16.289 -2.814,-24.039" style="fill:#0e69ae;fill-rule:nonzero;"/><path d="M17.416,7.937c-3.304,4.74 -3.121,11.087 -0.549,16.103c0.426,0.84 0.911,1.656 1.456,2.43c0.492,0.709 1.037,1.549 1.698,2.119c0.231,0.261 0.481,0.515 0.739,0.77c0.064,0.064 0.127,0.126 0.194,0.193c0.247,0.236 0.497,0.47 0.754,0.697c0.008,0.01 0.022,0.019 0.03,0.029c0.004,0.002 0.008,0.005 0.008,0.005c0.287,0.254 0.578,0.495 0.881,0.73c0.07,0.05 0.134,0.106 0.205,0.157c0.298,0.233 0.605,0.457 0.914,0.677c0.011,0.004 0.019,0.011 0.034,0.017c0.134,0.097 0.276,0.187 0.422,0.28c0.063,0.041 0.13,0.089 0.194,0.129c0.227,0.147 0.451,0.285 0.683,0.422c0.033,0.016 0.067,0.035 0.1,0.051c0.195,0.118 0.4,0.234 0.605,0.338c0.071,0.043 0.142,0.077 0.213,0.116c0.142,0.071 0.283,0.145 0.421,0.218c0.019,0.01 0.045,0.021 0.068,0.03c0.291,0.144 0.586,0.276 0.877,0.409c0.071,0.028 0.131,0.052 0.198,0.08c0.239,0.103 0.481,0.204 0.72,0.295c0.108,0.036 0.209,0.078 0.31,0.114c0.22,0.078 0.444,0.155 0.664,0.227c0.108,0.036 0.205,0.066 0.303,0.098c0.313,0.099 0.631,0.226 0.963,0.277c17.005,2.821 20.939,-10.279 20.939,-10.279c-3.542,5.103 -10.399,7.532 -17.714,5.633c-0.329,-0.084 -0.65,-0.178 -0.964,-0.28c-0.1,-0.026 -0.19,-0.058 -0.287,-0.092c-0.227,-0.072 -0.455,-0.149 -0.676,-0.231c-0.1,-0.037 -0.205,-0.075 -0.305,-0.114c-0.243,-0.095 -0.486,-0.188 -0.721,-0.293c-0.071,-0.028 -0.138,-0.052 -0.194,-0.082c-0.302,-0.131 -0.601,-0.271 -0.892,-0.41c-0.149,-0.077 -0.295,-0.152 -0.444,-0.23c-0.09,-0.045 -0.176,-0.088 -0.254,-0.129c-0.198,-0.102 -0.381,-0.211 -0.568,-0.321c-0.044,-0.024 -0.089,-0.047 -0.134,-0.073c-0.227,-0.138 -0.463,-0.276 -0.679,-0.42c-0.075,-0.042 -0.138,-0.091 -0.209,-0.136c-0.149,-0.095 -0.295,-0.19 -0.448,-0.293c-0.31,-0.214 -0.612,-0.442 -0.914,-0.67c-0.072,-0.058 -0.139,-0.11 -0.206,-0.166c-3.21,-2.527 -5.748,-5.983 -6.95,-9.896c-1.269,-4.065 -0.989,-8.628 1.199,-12.329" style="fill:#0e69ae;fill-rule:nonzero;"/><path d="M29.308,3.814c-1.949,2.859 -2.136,6.411 -0.792,9.565c1.426,3.352 4.341,5.981 7.738,7.226c0.138,0.054 0.276,0.099 0.418,0.147c0.063,0.019 0.123,0.039 0.19,0.06c0.198,0.061 0.396,0.136 0.601,0.176c9.394,1.814 11.94,-4.821 12.623,-5.797c-2.235,3.214 -5.986,3.984 -10.589,2.866c-0.362,-0.088 -0.758,-0.218 -1.108,-0.345c-0.448,-0.159 -0.892,-0.343 -1.325,-0.547c-0.81,-0.393 -1.594,-0.867 -2.318,-1.416c-4.121,-3.124 -6.674,-9.083 -3.987,-13.937" style="fill:#0e69ae;fill-rule:nonzero;"/><path d="M246.995,17.207l0.369,1.557c0.104,0.446 -0.179,0.806 -0.635,0.806" style="fill:#333;fill-rule:nonzero;"/><path d="M217.358,14.535c-0.093,0.431 -0.205,0.976 -0.279,1.336l-3.251,15.216l3.419,-16.03l0.111,-0.522Z" style="fill:#333;fill-rule:nonzero;"/><path d="M119.963,24.717l-1.796,6.358l1.796,-6.356l0,-0.002Z" style="fill:#333;fill-rule:nonzero;"/><path d="M247.364,18.764l-0.937,-3.962c-0.739,-2.867 -2.833,-4.222 -7.539,-4.222l-19.794,0c-0.456,0 -0.911,0.206 -1.004,0.652l-7.509,35.614c-0.098,0.45 -0.127,0.77 -0.076,0.993c0.053,0.23 0.934,0.187 1.385,0.187l6.857,0c0.459,0 1.292,0.034 1.534,-0.064c0.254,-0.104 0.366,-0.783 0.459,-1.232l2.423,-12.488l2.96,-13.851c0.096,-0.444 0.544,-0.808 1,-0.808l19.606,-0.013c0.452,0 0.739,-0.362 0.635,-0.806Z" style="fill:#333;fill-rule:nonzero;"/><path d="M275.255,4.326c-0.459,0.006 -8.695,0 -8.695,0c-0.455,0 -1.041,0.49 -1.295,0.867l-15.263,22.454c-0.26,0.377 -0.555,0.364 -0.656,-0.08l-1.128,-4.921c-0.096,-0.447 -0.551,-0.81 -1.014,-0.81l-9.81,0c-0.451,0 -0.724,0.377 -0.604,0.817l4.397,15.417c0.127,0.441 0.138,1.162 0.025,1.603l-2.05,7.809c-0.109,0.442 0.171,0.576 0.634,0.576l9.686,0c0.455,0 0.926,-0.132 1.037,-0.576l2.052,-7.918c0.112,-0.442 0.429,-1.042 0.701,-1.41l24.909,-33.035c0.28,-0.361 0.24,-0.795 -0.215,-0.795l-2.711,0.002Z" style="fill:#333;fill-rule:nonzero;"/><path d="M173.121,10.611l-8.854,0c-0.451,0 -0.914,0.158 -1.004,0.606l-2.926,13.692l-2.915,13.11c-0.093,0.444 -0.545,0.414 -1.001,0.414l-5.818,0c-5.756,0 -5.092,-3.637 -3.908,-9.088c0.014,-0.054 3.691,-18.128 3.691,-18.128c0.082,-0.446 -0.217,-0.606 -0.668,-0.606l-8.435,0c-0.455,0 -0.908,0.16 -0.996,0.606l-3.394,18.115c-1.692,9.794 -1.743,18.412 9.615,18.697c0.187,0.006 17.935,0 17.935,0c0.459,0 0.91,-0.151 1.008,-0.592l3.851,-18.167l3.837,-18.241c0,0 0.136,-0.418 -0.018,-0.418Z" style="fill:#333;fill-rule:nonzero;"/><path d="M84.937,10.58l-9.492,0c-0.456,0 -0.915,0.109 -1.015,0.556l-1.714,7.412c-0.097,0.438 0.195,0.789 0.654,0.789l9.088,0c0.46,0 0.915,-0.414 1.012,-0.857l1.65,-7.467c0,0 0.131,-0.433 -0.183,-0.433Z" style="fill:#333;fill-rule:nonzero;"/><path d="M72.754,21.836c-0.452,0 -0.915,0.36 -1.012,0.806l-1.28,5.653l-2.856,13.054c0,0 -1.519,6.939 -1.664,7.374c0,0 -1.279,5.011 -4.336,4.809c-1.421,-0.093 -3.047,-0.419 -3.047,-0.419l-0.004,0c-0.854,-0.258 -0.914,0.628 -1.019,1.072l-1.885,8.133c-0.108,0.445 0.184,0.845 0.635,0.851c0,0 4.087,0.576 6.972,0.576l0.474,0c7.129,0 10.895,-4.191 13.303,-15.573l2.821,-13.174l2.647,-12.257c0.097,-0.446 -0.172,-0.86 -0.627,-0.86" style="fill:#333;fill-rule:nonzero;"/><path d="M199.732,26.195c0,0.494 -1.563,0.4 -1.563,0.4l-12.447,-0.09c-0.43,0 -0.553,-0.603 -0.583,-1.035c-0.001,-0.014 0.031,-0.517 0.068,-0.641c0.962,-3.338 3.833,-5.244 8.383,-5.244c5.12,0 6.214,2.54 6.214,5.356m-4.281,-14.415c-15.967,0 -19.778,9.868 -21.898,19.65c-2.121,9.973 -1.94,17.856 14.581,17.856l15.114,0c0.447,-0.008 0.895,-0.418 0.985,-0.861l1.624,-6.326c0.094,-0.448 -0.209,-0.58 -0.66,-0.58l-14.859,0c-5.382,0 -7.309,-1.658 -7.121,-5.381c-0.004,-0.424 0.481,-1.502 0.936,-1.502l22.888,0c1.005,-0.006 1.037,-0.594 1.037,-0.594c2.33,-10.516 2.482,-22.262 -12.627,-22.262Z" style="fill:#333;fill-rule:nonzero;"/><path d="M118.082,31.075l-1.84,6.29c-0.127,0.441 -0.646,0.735 -1.102,0.735l-9.492,0c-7.204,0 -8.954,-5.567 -7.204,-13.874c1.759,-8.491 5.242,-13.744 12.326,-14.277c9.686,-0.729 11.668,6.111 9.32,13.973l-2.008,7.153Zm8.435,6.665c0,0 4.472,-10.863 5.486,-17.142c1.389,-8.401 -2.815,-20.586 -19.065,-20.586c-16.154,0 -23.164,11.632 -25.848,24.28c-2.672,12.739 0.827,23.829 16.892,23.74l24.52,-0.015c0.451,-0.002 0.923,-0.367 1.039,-0.803l2.067,-7.871c0.112,-0.444 -0.168,-0.805 -0.627,-0.807l-1.975,-0.014l-1.974,-0.009c-0.388,-0.004 -0.612,-0.256 -0.56,-0.59c0.007,-0.06 0.015,-0.121 0.045,-0.183Z" style="fill:#333;fill-rule:nonzero;"/></g></svg>