<?xml version="1.0" encoding="UTF-8" standalone="no"?>
<!DOCTYPE svg PUBLIC "-//W3C//DTD SVG 1.1//EN" "http://www.w3.org/Graphics/SVG/1.1/DTD/svg11.dtd">
<svg width="100%" height="100%" viewBox="0 0 443 272" version="1.1" xmlns="http://www.w3.org/2000/svg" xmlns:xlink="http://www.w3.org/1999/xlink" xml:space="preserve" style="fill-rule:evenodd;clip-rule:evenodd;stroke-linejoin:round;stroke-miterlimit:1.41421;">
    <g transform="matrix(1,0,0,1,-78,-163)">
        <g>
            <g>
                <g>
                    <g>
                        <g>
                            <path d="M296.953,434.944C295.493,434.944 294.041,434.563 292.763,433.823L279.425,425.931C277.434,424.817 278.406,424.422 279.063,424.193C281.72,423.271 282.258,423.058 285.094,421.45C285.389,421.283 285.781,421.347 286.086,421.526L296.333,427.609C296.704,427.815 297.228,427.815 297.57,427.609L337.52,404.551C337.892,404.339 338.13,403.911 338.13,403.47L338.13,357.366C338.13,356.915 337.892,356.494 337.51,356.265L297.577,333.227C297.208,333.011 296.718,333.011 296.346,333.227L256.423,356.272C256.035,356.494 255.789,356.929 255.789,357.366L255.789,403.47C255.789,403.911 256.035,404.329 256.419,404.538L267.363,410.861C273.301,413.83 276.937,410.333 276.937,406.82L276.937,361.301C276.937,360.657 277.454,360.15 278.098,360.15L283.163,360.15C283.797,360.15 284.321,360.657 284.321,361.301L284.321,406.82C284.321,414.745 280.005,419.29 272.492,419.29C270.183,419.29 268.365,419.29 263.29,416.789L252.814,410.758C250.226,409.262 248.624,406.465 248.624,403.47L248.624,357.366C248.624,354.371 250.226,351.574 252.814,350.085L292.763,327C295.291,325.571 298.651,325.571 301.159,327L341.106,350.085C343.693,351.581 345.302,354.371 345.302,357.366L345.302,403.47C345.302,406.465 343.693,409.252 341.106,410.758L301.159,433.823C299.882,434.563 298.433,434.944 296.953,434.944" style="fill:rgb(101,159,102);fill-rule:nonzero;"/>
                            <path d="M309.293,403.182C291.811,403.182 288.149,395.158 288.149,388.427C288.149,387.787 288.663,387.276 289.303,387.276L294.468,387.276C295.045,387.276 295.526,387.691 295.616,388.254C296.396,393.512 298.721,396.166 309.293,396.166C317.709,396.166 321.292,394.262 321.292,389.797C321.292,387.223 320.276,385.312 307.197,384.031C296.266,382.95 289.505,380.535 289.505,371.791C289.505,363.73 296.299,358.923 307.691,358.923C320.489,358.923 326.822,363.365 327.624,372.895C327.654,373.224 327.538,373.539 327.319,373.784C327.1,374.013 326.795,374.153 326.473,374.153L321.288,374.153C320.751,374.153 320.276,373.771 320.167,373.25C318.923,367.717 315.898,365.949 307.691,365.949C298.502,365.949 297.434,369.15 297.434,371.549C297.434,374.455 298.694,375.3 311.101,376.942C323.378,378.565 329.21,380.863 329.21,389.492C329.21,398.196 321.952,403.182 309.293,403.182" style="fill:rgb(101,159,102);fill-rule:nonzero;"/>
                            <path d="M357.939,354.3L359.282,354.3C360.38,354.3 360.586,353.527 360.586,353.079C360.586,351.896 359.77,351.896 359.322,351.896L357.939,351.896L357.939,354.3ZM356.307,350.511L359.282,350.511C360.301,350.511 362.298,350.511 362.298,352.794C362.298,354.383 361.279,354.708 360.666,354.912C361.85,354.993 361.93,355.768 362.092,356.867C362.175,357.559 362.298,358.742 362.54,359.148L360.709,359.148C360.666,358.742 360.38,356.541 360.38,356.42C360.261,355.93 360.095,355.687 359.485,355.687L357.979,355.687L357.979,359.148L356.307,359.148L356.307,350.511ZM352.744,354.809C352.744,358.395 355.637,361.288 359.18,361.288C362.766,361.288 365.658,358.334 365.658,354.809C365.658,351.225 362.726,348.373 359.18,348.373C355.677,348.373 352.744,351.183 352.744,354.809M366.899,354.831C366.899,359.067 363.435,362.53 359.2,362.53C355.003,362.53 351.5,359.108 351.5,354.831C351.5,350.472 355.086,347.13 359.2,347.13C363.356,347.13 366.899,350.472 366.899,354.831" style="fill:rgb(101,159,102);fill-rule:nonzero;"/>
                            <path d="M173.243,254.567C173.243,252.726 172.274,251.034 170.685,250.122L128.33,225.747C127.614,225.325 126.811,225.106 125.999,225.073L125.561,225.073C124.751,225.106 123.949,225.325 123.222,225.747L80.867,250.122C79.288,251.034 78.306,252.726 78.306,254.567L78.399,320.202C78.399,321.115 78.873,321.964 79.676,322.412C80.462,322.883 81.434,322.883 82.217,322.412L107.389,307.998C108.981,307.053 109.95,305.384 109.95,303.559L109.95,272.895C109.95,271.067 110.918,269.375 112.504,268.466L123.222,262.293C124.021,261.832 124.894,261.606 125.786,261.606C126.659,261.606 127.554,261.832 128.33,262.293L139.045,268.466C140.631,269.375 141.603,271.067 141.603,272.895L141.603,303.559C141.603,305.384 142.585,307.063 144.167,307.998L169.332,322.412C170.121,322.883 171.107,322.883 171.889,322.412C172.669,321.964 173.16,321.115 173.16,320.202L173.243,254.567Z" style="fill:rgb(51,51,51);"/>
                            <path d="M373.109,288.743C373.109,289.199 372.865,289.622 372.469,289.849L357.921,298.235C357.526,298.462 357.039,298.462 356.644,298.235L342.096,289.849C341.699,289.622 341.456,289.199 341.456,288.743L341.456,271.944C341.456,271.488 341.699,271.065 342.095,270.836L356.642,262.434C357.039,262.205 357.526,262.205 357.923,262.434L372.47,270.836C372.865,271.065 373.109,271.488 373.109,271.944L373.109,288.743ZM377.04,164.34C376.247,163.9 375.28,163.909 374.497,164.369C373.716,164.828 373.235,165.668 373.235,166.575L373.235,231.575C373.235,232.214 372.893,232.806 372.341,233.126C371.787,233.446 371.104,233.446 370.55,233.126L359.941,227.014C358.359,226.101 356.412,226.103 354.829,227.015L312.458,251.468C310.874,252.382 309.899,254.071 309.899,255.899L309.899,304.815C309.899,306.643 310.874,308.331 312.456,309.247L354.826,333.718C356.41,334.632 358.36,334.632 359.944,333.718L402.321,309.247C403.903,308.331 404.879,306.643 404.879,304.815L404.879,182.879C404.879,181.025 403.875,179.315 402.255,178.411L377.04,164.34Z" style="fill:rgb(51,51,51);"/>
                            <path d="M518.131,271.505C519.707,270.59 520.677,268.904 520.677,267.081L520.677,255.227C520.677,253.404 519.707,251.717 518.129,250.802L476.03,226.359C474.446,225.438 472.491,225.437 470.903,226.352L428.547,250.805C426.964,251.719 425.989,253.407 425.989,255.235L425.989,304.138C425.989,305.978 426.976,307.675 428.573,308.584L470.666,332.569C472.218,333.455 474.121,333.465 475.683,332.597L501.143,318.446C501.951,317.996 502.454,317.149 502.459,316.227C502.465,315.304 501.974,314.45 501.175,313.991L458.55,289.526C457.754,289.07 457.264,288.222 457.264,287.307L457.264,271.981C457.264,271.067 457.752,270.221 458.545,269.765L471.811,262.117C472.6,261.661 473.575,261.661 474.365,262.117L487.637,269.765C488.43,270.221 488.917,271.067 488.917,271.981L488.917,284.039C488.917,284.955 489.407,285.801 490.2,286.257C490.993,286.715 491.97,286.711 492.761,286.252L518.131,271.505Z" style="fill:rgb(51,51,51);"/>
                            <path d="M472.842,269.214C473.146,269.038 473.52,269.038 473.824,269.214L481.954,273.904C482.258,274.08 482.445,274.404 482.445,274.755L482.445,284.143C482.445,284.495 482.258,284.818 481.954,284.994L473.824,289.685C473.52,289.861 473.146,289.861 472.842,289.685L464.718,284.994C464.414,284.818 464.227,284.495 464.227,284.143L464.227,274.755C464.227,274.404 464.414,274.08 464.718,273.904L472.842,269.214Z" style="fill:rgb(101,159,102);"/>
                            <clipPath id="_clip1">
                                <path d="M239.032,226.607L196.898,250.922C195.322,251.831 194.353,253.51 194.353,255.329L194.353,303.995C194.353,305.813 195.322,307.492 196.897,308.403L239.03,332.737C240.606,333.646 242.546,333.646 244.121,332.737L286.245,308.403C287.819,307.492 288.788,305.813 288.788,303.995L288.788,255.327C288.788,253.51 287.819,251.831 286.243,250.922L244.12,226.607C243.333,226.153 242.454,225.925 241.576,225.925C240.697,225.925 239.819,226.153 239.032,226.607Z"/>
                            </clipPath>
                            <g clip-path="url(#_clip1)">
                                <path d="M311.465,259.551L268.453,347.296L171.642,299.84L214.655,212.095L311.465,259.551Z" style="fill:url(#_Linear2);fill-rule:nonzero;"/>
                            </g>
                            <clipPath id="_clip3">
                                <path d="M195.4,307.086C195.801,307.611 196.306,308.061 196.897,308.403L233.04,329.277L239.057,332.737C239.957,333.256 240.984,333.476 241.993,333.402C242.33,333.374 242.666,333.312 242.994,333.217L287.424,251.86C287.084,251.495 286.688,251.178 286.243,250.922L258.655,234.997L244.076,226.607C243.659,226.367 243.212,226.194 242.753,226.081L195.4,307.086Z"/>
                            </clipPath>
                            <g clip-path="url(#_clip3)">
                                <path d="M173.406,277.318L259.328,213.834L310.618,283.252L224.696,346.737L173.406,277.318Z" style="fill:url(#_Linear4);fill-rule:nonzero;"/>
                            </g>
                            <g>
                                <g>
                                    <g transform="matrix(1,-0,-0,1,78,163)">
                                    </g>
                                </g>
                            </g>
                            <path d="M241.065,225.952C240.36,226.022 239.667,226.241 239.032,226.607L197.018,250.852L242.311,333.365C242.939,333.274 243.554,333.064 244.121,332.737L286.245,308.403C287.546,307.65 288.434,306.372 288.703,304.926L242.525,226.036C242.184,225.968 241.837,225.934 241.49,225.934C241.348,225.934 241.206,225.94 241.065,225.952Z" style="fill:url(#_Linear5);fill-rule:nonzero;"/>
                            <g>
                                <g>
                                    <g transform="matrix(1,-0,-0,1,78,163)">
                                    </g>
                                </g>
                            </g>
                            <clipPath id="_clip6">
                                <path d="M239.032,226.607L196.898,250.922C195.323,251.831 194.353,253.51 194.353,255.329L194.353,303.995C194.353,305.813 195.323,307.492 196.897,308.403L239.03,332.737C240.606,333.646 242.546,333.646 244.121,332.737L286.245,308.403C287.819,307.492 288.788,305.813 288.788,303.995L288.788,255.327C288.788,253.51 287.819,251.831 286.243,250.922L244.12,226.607C243.333,226.153 242.454,225.925 241.576,225.925C240.697,225.925 239.819,226.153 239.032,226.607Z"/>
                            </clipPath>
                            <g clip-path="url(#_clip6)">
                                <path d="M286.351,308.403L244.174,332.736C243.594,333.071 242.961,333.281 242.313,333.369L243.153,334.899L290,307.782L290,307.143L288.842,305.164C288.495,306.512 287.579,307.692 286.351,308.403Z" style="fill:url(#_Linear7);fill-rule:nonzero;"/>
                            </g>
                            <g>
                                <clipPath id="_clip8">
                                    <path d="M239.032,226.607L196.898,250.922C195.323,251.831 194.353,253.51 194.353,255.329L194.353,303.995C194.353,305.813 195.323,307.492 196.897,308.403L239.03,332.737C240.606,333.646 242.546,333.646 244.121,332.737L286.245,308.403C287.819,307.492 288.788,305.813 288.788,303.995L288.788,255.327C288.788,253.51 287.819,251.831 286.243,250.922L244.12,226.607C243.333,226.153 242.454,225.925 241.576,225.925C240.697,225.925 239.819,226.153 239.032,226.607Z"/>
                                </clipPath>
                                <g clip-path="url(#_clip8)">
                                    <clipPath id="_clip9">
                                        <path d="M286.351,308.403L244.174,332.736C243.594,333.071 242.961,333.281 242.313,333.369L243.153,334.899L290,307.782L290,307.143L288.842,305.164C288.495,306.512 287.579,307.692 286.351,308.403Z"/>
                                    </clipPath>
                                    <g clip-path="url(#_clip9)">
                                        <path d="M290.81,306.129L270.207,348.161L241.871,334.271L262.475,292.239L290.81,306.129Z" style="fill:url(#_Linear10);fill-rule:nonzero;"/>
                                    </g>
                                </g>
                            </g>
                        </g>
                    </g>
                </g>
            </g>
        </g>
    </g>
    <defs>
        <linearGradient id="_Linear2" x1="0" y1="0" x2="1" y2="0" gradientUnits="userSpaceOnUse" gradientTransform="matrix(-38.0649,77.6524,-77.6524,-38.0649,258.702,244.715)"><stop offset="0%" style="stop-color:rgb(105,126,102);stop-opacity:1"/><stop offset="100%" style="stop-color:rgb(130,161,120);stop-opacity:1"/></linearGradient>
        <linearGradient id="_Linear4" x1="0" y1="0" x2="1" y2="0" gradientUnits="userSpaceOnUse" gradientTransform="matrix(106.807,-78.9149,78.9149,106.807,235.158,285.353)"><stop offset="0%" style="stop-color:rgb(105,126,102);stop-opacity:1"/><stop offset="100%" style="stop-color:rgb(154,180,142);stop-opacity:1"/></linearGradient>
        <linearGradient id="_Linear5" x1="0" y1="0" x2="1" y2="0" gradientUnits="userSpaceOnUse" gradientTransform="matrix(97.417,0,0,97.417,192.862,279.652)"><stop offset="0%" style="stop-color:rgb(154,180,142);stop-opacity:1"/><stop offset="100%" style="stop-color:rgb(105,126,102);stop-opacity:1"/></linearGradient>
        <linearGradient id="_Linear7" x1="0" y1="0" x2="1" y2="0" gradientUnits="userSpaceOnUse" gradientTransform="matrix(97.417,0,0,97.417,192.862,320.032)"><stop offset="0%" style="stop-color:rgb(154,180,142);stop-opacity:1"/><stop offset="100%" style="stop-color:rgb(105,126,102);stop-opacity:1"/></linearGradient>
        <linearGradient id="_Linear10" x1="0" y1="0" x2="1" y2="0" gradientUnits="userSpaceOnUse" gradientTransform="matrix(-60.0806,122.564,-122.564,-60.0806,304.472,242.412)"><stop offset="0%" style="stop-color:rgb(105,126,102);stop-opacity:1"/><stop offset="100%" style="stop-color:rgb(130,161,120);stop-opacity:1"/></linearGradient>
    </defs>
</svg>
