<?xml version="1.0" encoding="UTF-8" standalone="no"?>
<!DOCTYPE svg PUBLIC "-//W3C//DTD SVG 1.1//EN" "http://www.w3.org/Graphics/SVG/1.1/DTD/svg11.dtd">
<svg width="100%" height="100%" viewBox="0 0 1250 454" version="1.1" xmlns="http://www.w3.org/2000/svg" xmlns:xlink="http://www.w3.org/1999/xlink" xml:space="preserve" style="fill-rule:evenodd;clip-rule:evenodd;stroke-linejoin:round;stroke-miterlimit:1.41421;">
    <g transform="matrix(1,0,0,1,0,-1)">
        <g transform="matrix(4.16667,0,0,4.16667,0,0)">
            <g>
                <g>
                    <g>
                        <path d="M96.698,0.422L52.347,11.979L45.783,23.244L32.463,23.147L0,54.718L32.463,86.283L45.776,86.186L52.355,97.443L96.698,108.999L108.578,65.886L101.828,54.718L108.578,43.551L96.698,0.422ZM46.851,25.056L80.777,16.576L61.303,49.385L22.348,49.385L46.851,25.056ZM46.851,84.373L22.348,60.045L61.303,60.045L80.777,92.852L46.851,84.373ZM90.271,87.519L70.79,54.718L90.271,21.903L99.678,54.718L90.271,87.519Z" style="fill-rule:nonzero;"/>
                        <path d="M197.298,32.412C191.37,32.412 187.393,34.868 184.429,39.524L184.175,39.524L184.175,33.598L173.803,33.598L173.803,77.028L184.429,77.028L184.429,52.392C184.429,46.465 188.153,42.402 193.233,42.402C198.059,42.402 201.656,45.263 201.656,50.36L201.656,77.028L212.282,77.028L212.282,48.667C212.282,39.184 206.271,32.412 197.298,32.412Z" style="fill-rule:nonzero;"/>
                        <path d="M157.639,58.637C157.639,64.394 154.337,68.457 148.919,68.457C144.008,68.457 140.92,65.663 140.92,60.584L140.92,33.577L130.294,33.577L130.294,62.53C130.294,72.013 135.711,78.193 145.363,78.193C151.458,78.193 154.845,75.908 157.808,71.929L158.062,71.929L158.062,77.008L168.277,77.008L168.277,33.577L157.639,33.577L157.639,58.637Z" style="fill-rule:nonzero;"/>
                        <rect x="217.853" y="33.598" width="10.627" height="43.43" style="fill-rule:nonzero;"/>
                        <path d="M288.537,33.597L282.224,53.154C280.869,57.133 279.684,62.636 279.684,62.636L279.415,62.636C279.415,62.636 277.976,57.133 276.62,53.154L269.49,33.597L258.13,33.597L269.814,64.498C272.268,71.101 273.114,73.895 273.114,76.266C273.114,79.822 271.252,82.192 266.681,82.192L262.617,82.192L262.617,91.251L269.39,91.251C278.194,91.251 281.251,87.779 284.553,78.129L299.867,33.597L288.537,33.597Z" style="fill-rule:nonzero;"/>
                        <path d="M248.278,64.244L248.278,41.217L255.051,41.217L255.051,33.598L248.278,33.598L248.278,20.052L237.726,20.052L237.726,33.598L231.715,33.598L231.715,41.217L237.726,41.217L237.726,66.699C237.726,74.912 243.905,77.112 249.494,77.112C254.065,77.112 255.306,76.943 255.306,76.943L255.306,68.548C255.306,68.548 254.035,68.562 252.596,68.562C250.056,68.562 248.278,67.461 248.278,64.244Z" style="fill-rule:nonzero;"/>
                    </g>
                    <rect x="217.853" y="20.052" width="10.627" height="8.729" style="fill-rule:nonzero;"/>
                </g>
            </g>
        </g>
    </g>
</svg>
