<?xml version="1.0" encoding="UTF-8" standalone="no"?>
<!DOCTYPE svg PUBLIC "-//W3C//DTD SVG 1.1//EN" "http://www.w3.org/Graphics/SVG/1.1/DTD/svg11.dtd">
<svg width="100%" height="100%" viewBox="0 0 3047 876" version="1.1" xmlns="http://www.w3.org/2000/svg" xmlns:xlink="http://www.w3.org/1999/xlink" xml:space="preserve" style="fill-rule:evenodd;clip-rule:evenodd;stroke-linejoin:round;stroke-miterlimit:1.41421;">
    <g transform="matrix(1,0,0,1,-421,-336)">
        <g>
            <path d="M808,336L1195,554.9L1195,992.8L808,1211.7L421,992.8L421,554.9L808,336Z" style="fill:white;fill-rule:nonzero;"/>
            <path d="M1125.9,977.7L820.8,1150.3L820.8,1015.9L1010.9,911.3L1125.9,977.7ZM1146.8,958.8L1146.8,597.9L1035.2,662.4L1035.2,894.4L1146.8,958.8ZM488.9,977.7L794,1150.3L794,1015.9L603.8,911.3L488.9,977.7L488.9,977.7ZM468,958.8L468,597.9L579.6,662.4L579.6,894.4L468,958.8ZM481.1,574.5L794,397.5L794,527.4L593.5,637.7L591.9,638.6L481.1,574.5L481.1,574.5ZM1133.7,574.5L820.8,397.5L820.8,527.4L1021.3,637.6L1022.9,638.5L1133.7,574.5Z" style="fill:rgb(142,214,251);fill-rule:nonzero;"/>
            <path d="M794,985.3L606.4,882.1L606.4,677.8L794,786.1L794,985.3ZM820.8,985.3L1008.4,882.2L1008.4,677.8L820.8,786.1L820.8,985.3ZM619.1,654.2L807.4,550.7L995.7,654.2L807.4,762.9L619.1,654.2L619.1,654.2Z" style="fill:rgb(28,120,192);fill-rule:nonzero;"/>
            <path d="M1585.3,912.3L1667.8,912.3L1751.9,632.1L1671.5,632.1L1621.7,830.9L1568.6,632.1L1499,632.1L1445.4,830.9L1396.1,632.1L1315.7,632.1L1399.3,912.3L1481.8,912.3L1533.8,732.8L1585.3,912.3ZM1756.2,773C1756.2,857.1 1813.5,919.3 1903.6,919.3C1973.3,919.3 2010.8,877.5 2021.5,857.7L1972.7,820.7C1964.7,832.5 1942.7,855 1904.6,855C1863.3,855 1833.3,828.2 1831.7,790.7L2029,790.7C2029.5,785.3 2029.5,780 2029.5,774.6C2029.5,683 1980.2,625.1 1893.4,625.1C1813.5,625.1 1756.2,688.3 1756.2,773L1756.2,773ZM1833.9,742.4C1837.1,710.3 1859.6,685.6 1894.5,685.6C1928.3,685.6 1952.9,708.1 1954.5,742.4L1833.9,742.4ZM2057.4,912.3L2127.1,912.3L2127.1,883.4C2134.6,892.5 2162.5,919.3 2210.2,919.3C2290.6,919.3 2347.4,858.8 2347.4,772.5C2347.4,685.7 2294.9,625.2 2214.5,625.2C2166.3,625.2 2138.4,652 2131.4,661.6L2131.4,524.9L2057.5,524.9L2057.5,912.3L2057.4,912.3ZM2129.2,773C2129.2,720.5 2160.3,690.5 2201,690.5C2243.9,690.5 2272.8,724.3 2272.8,773C2272.8,822.8 2242.8,853.9 2201,853.9C2156,853.9 2129.2,817.4 2129.2,773ZM2376.2,1012.5L2450.1,1012.5L2450.1,883.3C2457.1,892.4 2484.9,919.2 2533.2,919.2C2613.6,919.2 2666.1,858.7 2666.1,771.9C2666.1,686.2 2609.3,625.1 2528.9,625.1C2481.2,625.1 2453.3,651.9 2445.8,661.5L2445.8,632L2376.1,632L2376.1,1012.5L2376.2,1012.5ZM2448,771.4C2448,726.9 2474.8,690.5 2519.8,690.5C2561.6,690.5 2591.6,721.6 2591.6,771.4C2591.6,820.2 2562.7,853.9 2519.8,853.9C2479.1,853.9 2448,823.9 2448,771.4ZM2679.5,825.5C2679.5,884.4 2727.7,919.3 2784.5,919.3C2816.7,919.3 2838.1,909.7 2852.6,894.1L2857.4,912.3L2922.8,912.3L2922.8,734.9C2922.8,672.2 2896,625.1 2806,625.1C2763.1,625.1 2720.8,641.2 2695.6,658.3L2723.5,708.7C2744.4,698 2770.1,688.9 2798,688.9C2830.7,688.9 2848.9,705.5 2848.9,730.2L2848.9,748.4C2838.7,741.4 2816.7,732.9 2788.3,732.9C2722.9,732.8 2679.5,770.3 2679.5,825.5L2679.5,825.5ZM2753.4,823.3C2753.4,800.3 2773.2,784.2 2801.6,784.2C2830,784.2 2850.4,798.7 2850.4,823.3C2850.4,846.9 2830,861.9 2802.2,861.9C2774.4,861.9 2753.4,846.4 2753.4,823.3ZM3102.3,853.9C3055.7,853.9 3022.5,820.1 3022.5,772.5C3022.5,727.5 3052,690.5 3099.7,690.5C3131.3,690.5 3152.8,706 3165.1,717.3L3186,655.1C3167.8,641.2 3138.8,625.1 3097.6,625.1C3012.4,625.1 2948.6,687.8 2948.6,773C2948.6,858.2 3010.8,919.3 3098.1,919.3C3138.8,919.3 3169.4,902.2 3185.4,889.3L3165.6,828.8C3153.2,838.9 3130.7,853.9 3102.3,853.9L3102.3,853.9ZM3213.2,912.3L3287.1,912.3L3287.1,767.6L3380.9,912.3L3467.7,912.3L3361.6,759L3460.2,632L3377.1,632L3287.1,749.9L3287.1,524.9L3213.2,524.9L3213.2,912.3Z" style="fill:rgb(26,28,28);fill-rule:nonzero;"/>
        </g>
    </g>
</svg>
