<?xml version="1.0" encoding="UTF-8" standalone="no"?>
<svg width="208px" height="37px" viewBox="0 0 208 37" version="1.1" xmlns="http://www.w3.org/2000/svg" xmlns:xlink="http://www.w3.org/1999/xlink">
    <!-- Generator: Sketch 48.2 (47327) - http://www.bohemiancoding.com/sketch -->
    <title>AI-logo</title>
    <desc>Created with Sketch.</desc>
    <defs></defs>
    <g id="Home-Page" stroke="none" stroke-width="1" fill="none" fill-rule="evenodd" transform="translate(-41.000000, -44.000000)">
        <g id="Header" transform="translate(0.000000, -8.000000)" fill-rule="nonzero">
            <g id="AI-logo" transform="translate(41.000000, 52.000000)">
                <polygon id="Shape" fill="#98989A" points="0 35.981472 0 0 4 0 4 36 0 36"></polygon>
                <path d="M9,35.962804 L9,10.6323319 L13.1462995,10.6323319 L13.1273666,12.6595136 C14.1686747,11.8783977 15.3993115,11.2460658 16.83821,10.7439199 C18.2581756,10.241774 19.7538726,10 21.3063683,10 C24.8468158,10 27.3459552,10.8555079 28.8037866,12.5851216 C30.2616179,14.2961373 31,16.8440629 31,20.2103004 L31,36 L26.8347676,36 L26.8347676,20.1173104 C26.8347676,17.9971388 26.3425129,16.323319 25.3769363,15.1144492 C24.4113597,13.9055794 22.8209983,13.3104435 20.6247849,13.3104435 C19.2616179,13.3104435 17.9173838,13.6080114 16.5920826,14.1845494 C15.2667814,14.7610873 14.1497418,15.4120172 13.2030981,16.1187411 L13.2030981,36 L9,36 L9,35.962804 Z" id="Shape" fill="#98989A"></path>
                <path d="M36.6598493,36 L36.6598493,14.0998456 L33,14.0998456 L34.1345533,10.7647967 L36.714747,10.7647967 L36.714747,8.91199177 C36.714747,7.28152342 36.8977395,5.91044776 37.2637244,4.78023675 C37.6297094,3.65002573 38.1420883,2.74215131 38.8008611,2.01955739 C39.459634,1.31549151 40.2465016,0.796706125 41.1614639,0.481729285 C42.058127,0.166752445 43.0828848,0 44.1991389,0 C45.5166846,0 46.6512379,0.129696346 47.5662002,0.389089038 C48.4811625,0.648481729 49.3046286,0.981986619 50,1.37107566 L48.7922497,4.52084406 C48.2066738,4.24292331 47.547901,3.98353062 46.8342304,3.76119403 C46.1205597,3.53885744 45.3153929,3.40916109 44.4004306,3.40916109 C43.8148547,3.40916109 43.2841765,3.48327329 42.8266954,3.61296963 C42.3692142,3.76119403 41.98493,4.02058672 41.6738428,4.42820381 C41.3627557,4.8358209 41.1248654,5.39166238 40.941873,6.1142563 C40.7588805,6.83685023 40.6856835,7.78178075 40.6856835,8.94904786 L40.6856835,10.7462687 L46.6512379,10.7462687 L46.6512379,14.0813176 L40.7405813,14.0813176 L40.7405813,36 L36.6598493,36 Z" id="Shape" fill="#98989A"></path>
                <path d="M102,36 L102,10.5362731 L108.830527,10.5362731 L108.811448,12.7553343 C109.784512,11.7382646 110.776655,11.0170697 111.787879,10.6102418 C112.780022,10.2034139 113.829405,10 114.916947,10 C115.527497,10 116.195286,10.0739687 116.882155,10.2034139 C117.569024,10.3513514 118.274972,10.5362731 119,10.7766714 L117.740741,16.7496444 C117.015713,16.4722617 116.328844,16.2503556 115.699214,16.083926 C115.069585,15.9174964 114.439955,15.8435277 113.810325,15.8435277 C112.799102,15.8435277 111.883277,16.0654339 111.062851,16.5277383 C110.242424,16.9900427 109.593715,17.5078236 109.135802,18.1180654 L109.135802,35.9815078 L102,35.9815078 L102,36 Z" id="Shape" fill="#93D500"></path>
                <path d="M170.286744,35.8212058 C168.675793,35.035343 167.327089,34.006237 166.240634,32.7151767 C165.154179,31.4241164 164.348703,29.983368 163.805476,28.3555094 C163.262248,26.7276507 163,25.0810811 163,23.4158004 C163,21.7318087 163.262248,20.1039501 163.805476,18.4948025 C164.348703,16.8856549 165.154179,15.4636175 166.240634,14.1912682 C167.327089,12.9189189 168.675793,11.9085239 170.305476,11.1413721 C171.935159,10.3742204 173.827089,10 176,10 C178.172911,10 180.083573,10.3742204 181.694524,11.1413721 C183.324207,11.9085239 184.672911,12.9189189 185.759366,14.1912682 C186.845821,15.4636175 187.651297,16.8856549 188.194524,18.4948025 C188.737752,20.1039501 189,21.7318087 189,23.4158004 C189,25.0997921 188.737752,26.7463617 188.194524,28.3555094 C187.651297,29.983368 186.845821,31.4241164 185.759366,32.7151767 C184.672911,34.006237 183.324207,35.035343 181.694524,35.8212058 C180.064841,36.6070686 178.172911,37 176,37 C173.845821,37 171.935159,36.6070686 170.286744,35.8212058 Z M171.410663,28.972973 C171.916427,29.6839917 172.534582,30.2453222 173.302594,30.6569647 C174.070605,31.0686071 174.969741,31.2744283 176,31.2744283 C176.992795,31.2744283 177.873199,31.0686071 178.64121,30.6569647 C179.409222,30.2453222 180.04611,29.6839917 180.570605,28.972973 C181.095101,28.2619543 181.488473,27.4386694 181.75072,26.4844075 C182.012968,25.5488565 182.144092,24.5197505 182.144092,23.4158004 C182.144092,22.3492723 182.012968,21.3388773 181.75072,20.3659044 C181.488473,19.4116424 181.095101,18.5696466 180.570605,17.8773389 C180.04611,17.1850312 179.409222,16.6237006 178.64121,16.2120582 C177.873199,15.8004158 176.992795,15.5945946 176,15.5945946 C175.007205,15.5945946 174.126801,15.8004158 173.35879,16.2120582 C172.590778,16.6237006 171.95389,17.1663202 171.429395,17.8773389 C170.904899,18.5696466 170.511527,19.3929314 170.24928,20.3659044 C169.987032,21.3201663 169.855908,22.3492723 169.855908,23.4158004 C169.855908,24.5197505 169.987032,25.5488565 170.24928,26.4844075 C170.530259,27.4386694 170.904899,28.2619543 171.410663,28.972973 Z" id="Shape" fill="#93D500"></path>
                <path d="M191,36 L191,10.5362731 L197.82287,10.5362731 L197.82287,12.7553343 C198.794843,11.7382646 199.785874,11.0170697 200.795964,10.6102418 C201.786996,10.2034139 202.835202,10 203.921525,10 C204.53139,10 205.19843,10.0739687 205.884529,10.2034139 C206.570628,10.3513514 207.275785,10.5362731 208,10.7766714 L206.742152,16.7496444 C206.017937,16.4722617 205.331839,16.2503556 204.702915,16.083926 C204.073991,15.9174964 203.445067,15.8435277 202.816143,15.8435277 C201.806054,15.8435277 200.891256,16.0654339 200.071749,16.5277383 C199.252242,16.9900427 198.60426,17.5078236 198.146861,18.1180654 L198.146861,35.9815078 L191,35.9815078 L191,36 Z" id="Shape" fill="#93D500"></path>
                <path d="M121,36 L121,10.6444759 L127.62645,10.6444759 L127.62645,12.5410765 C128.443155,11.8413598 129.464037,11.2521246 130.670534,10.7549575 C131.87703,10.2577904 133.12065,10.0184136 134.364269,10.0184136 C135.607889,10.0184136 136.851508,10.2025496 138.132251,10.5708215 C139.412993,10.9390935 140.563805,11.5835694 141.640371,12.4858357 C142.883991,11.786119 144.220418,11.1968839 145.668213,10.7181303 C147.116009,10.2393768 148.693735,10 150.382831,10 C152.406032,10 154.076566,10.2393768 155.412993,10.7365439 C156.74942,11.233711 157.844548,11.9334278 158.679814,12.8356941 C159.515081,13.7563739 160.109049,14.8796034 160.461717,16.2053824 C160.814385,17.5311615 161,19.0594901 161,20.7903683 L161,36 L154.113689,36 L154.113689,21.1033994 C154.113689,19.427762 153.779582,18.0651558 153.111369,17.0339943 C152.443155,16.0028329 151.199536,15.4872521 149.399072,15.4872521 C148.860789,15.4872521 148.341067,15.5609065 147.802784,15.7266289 C147.264501,15.8923513 146.763341,16.0764873 146.299304,16.2790368 C145.816705,16.4815864 145.389791,16.7025496 145,16.9419263 C144.610209,17.1628895 144.313225,17.3654391 144.090487,17.5495751 C144.164733,17.9730878 144.238979,18.4518414 144.294664,18.9674221 C144.36891,19.5014164 144.406032,20.072238 144.406032,20.6983003 L144.406032,36 L137.519722,36 L137.519722,21.1033994 C137.519722,20.3300283 137.445476,19.611898 137.315545,18.9121813 C137.167053,18.2308782 136.944316,17.6232295 136.62877,17.1260623 C136.313225,16.6104816 135.886311,16.223796 135.329466,15.9107649 C134.772622,15.5977337 134.104408,15.4688385 133.287703,15.4688385 C132.266821,15.4688385 131.264501,15.7266289 130.317865,16.2606232 C129.37123,16.7946176 128.591647,17.3470255 127.979118,17.9362606 L127.979118,35.9815864 L121,35.9815864 L121,36 Z" id="Shape" fill="#93D500"></path>
                <path d="M62.6722488,35.9019441 L69,20.3115848 C68.8899522,19.7250542 68.761563,19.1196034 68.5781499,18.5330729 C68.0829346,16.9059237 67.3676236,15.467978 66.3955343,14.2003153 C65.4417863,12.9326525 64.2129187,11.9298746 62.745614,11.1541407 C61.2783094,10.3784068 59.5909091,10 57.6650718,10 C55.7025518,10 53.9968102,10.3784068 52.5478469,11.1352203 C51.0988836,11.8920339 49.8883573,12.8948119 48.8979266,14.1624746 C47.9258373,15.4301373 47.192185,16.8491627 46.715311,18.4573915 C46.238437,20.0656204 46,21.7116898 46,23.3956 C46,25.0984305 46.238437,26.7634204 46.7336523,28.3905695 C47.2288676,30.036639 47.9625199,31.4935051 48.9346093,32.7611678 C49.9066986,34.0477509 51.1172249,35.0694492 52.5478469,35.8641034 C54.0151515,36.620917 55.7025518,36.9993238 57.6283892,36.9993238 C59.5542265,37.0182441 61.2232855,36.6398373 62.6722488,35.9019441 Z M51.9059011,30.4718068 C51.2822967,29.5068695 50.8054226,28.3905695 50.4936204,27.1796678 C50.1818182,25.9498458 50.0167464,24.7011034 50.0167464,23.3956 C50.0167464,22.1279373 50.1818182,20.8981153 50.4936204,19.6872136 C50.8054226,18.4763119 51.2822967,17.3978526 51.9059011,16.4518356 C52.5295056,15.5058187 53.3365231,14.7300848 54.2902711,14.1624746 C55.2440191,13.5948644 56.3811802,13.292139 57.6650718,13.292139 C58.9489633,13.292139 60.0861244,13.5759441 61.0398724,14.1624746 C61.9936204,14.7300848 62.800638,15.5058187 63.4425837,16.4518356 C64.0845295,17.3978526 64.5614035,18.4952322 64.891547,19.7250542 C65.2033493,20.9548763 65.3684211,22.1846983 65.3684211,23.452361 C65.3684211,24.7200237 65.2033493,25.9498458 64.891547,27.1796678 C64.5797448,28.4094899 64.1028708,29.4879492 63.4425837,30.4528865 C62.800638,31.3989034 61.9936204,32.1746373 61.0398724,32.7800882 C60.0861244,33.3666187 58.9489633,33.6693441 57.6650718,33.6693441 C56.3995215,33.6693441 55.2990431,33.3666187 54.3452951,32.7800882 C53.391547,32.1746373 52.5845295,31.4178238 51.9059011,30.4718068 Z" id="Shape" fill="#98989A"></path>
                <polygon id="Shape" fill="#93D500" points="85.3812872 1 80.398053 1 66 36 73.1530557 36 82.7149811 11.5459318 87.220119 23.0472441 80.9680909 23.0472441 78.8166577 28.9816273 89.5370471 28.9816273 92.368848 36 100 36"></polygon>
            </g>
        </g>
    </g>
</svg>