<?xml version="1.0" encoding="UTF-8" standalone="no"?>
<!DOCTYPE svg PUBLIC "-//W3C//DTD SVG 1.1//EN" "http://www.w3.org/Graphics/SVG/1.1/DTD/svg11.dtd">
<svg width="100%" height="100%" viewBox="0 0 590 590" version="1.1" xmlns="http://www.w3.org/2000/svg" xmlns:xlink="http://www.w3.org/1999/xlink" xml:space="preserve" style="fill-rule:evenodd;clip-rule:evenodd;stroke-linecap:round;stroke-linejoin:round;">
    <g id="Layer-1">
        <path id="path3068" d="M328.7,395.8C369,380.8 390.1,352 390.1,302.4C390.1,252.8 348.3,209 296,208.9C240.9,208.8 199.2,252.5 199.9,302.4C200.6,352.3 224.3,385.4 262.3,397.3L195,563C104.8,539.7 13.2,433.3 13.2,302.4C13.2,147.3 137.8,21.5 294,21.5C450.2,21.5 576.8,147.2 576.8,302.3C576.8,435.3 486,540.2 393.9,563.4L328.7,395.8Z" style="fill:rgb(63,166,72);fill-rule:nonzero;stroke:rgb(35,85,42);stroke-width:19.21px;"/>
        <g id="path3432" transform="matrix(0.621884,0,0,0.621884,741.399,442.863)">
            <path d="M-297.1,165.7C-295.6,166.2 -294.1,167.3 -292.7,169C-291.2,170.7 -289.8,173 -288.3,176L-281.1,190.3L-288.7,190.3L-295.4,176.8C-297.1,173.3 -298.8,171 -300.5,169.8C-302.1,168.7 -304.3,168.1 -307.1,168.1L-314.8,168.1L-314.8,190.3L-321.9,190.3L-321.9,137.8L-305.9,137.8C-299.9,137.8 -295.4,139.1 -292.5,141.6C-289.5,144.1 -288.1,147.9 -288.1,153C-288.1,156.3 -288.9,159 -290.4,161.2C-291.9,163.4 -294.2,164.9 -297.1,165.7M-314.9,143.7L-314.9,162.3L-306,162.3C-302.6,162.3 -300,161.5 -298.3,159.9C-296.5,158.3 -295.7,156 -295.7,152.9C-295.7,149.8 -296.6,147.5 -298.3,146C-300,144.4 -302.6,143.6 -306,143.6L-314.9,143.6" style="fill:rgb(1,1,1);fill-rule:nonzero;"/>
        </g>
        <path id="path5290" d="M574.9,545.5C574.9,558.2 564.6,568.5 551.9,568.5C539.2,568.5 528.9,558.2 528.9,545.5C528.9,532.8 539.2,522.5 551.9,522.5C564.6,522.4 574.9,532.7 574.9,545.5C574.9,545.4 574.9,545.5 574.9,545.5Z" style="fill:none;stroke:rgb(1,1,1);stroke-width:7.52px;"/>
    </g>
</svg>
