<?xml version="1.0" encoding="UTF-8" standalone="no"?>
<!DOCTYPE svg PUBLIC "-//W3C//DTD SVG 1.1//EN" "http://www.w3.org/Graphics/SVG/1.1/DTD/svg11.dtd">
<svg width="100%" height="100%" viewBox="0 0 42 28" version="1.1" xmlns="http://www.w3.org/2000/svg" xmlns:xlink="http://www.w3.org/1999/xlink" xml:space="preserve" style="fill-rule:evenodd;clip-rule:evenodd;stroke-linejoin:round;stroke-miterlimit:1.41421;">
    <g transform="matrix(0.998716,0,0,1.00828,-2.664e-06,0.00100828)">
        <path d="M31.364,12.635C30.404,12.635 29.477,12.726 28.596,12.891C30.521,11.517 31.706,9.626 31.706,7.539C31.706,3.34 26.938,-0.001 21.018,-0.001C15.099,0 10.38,3.341 10.38,7.54C10.38,9.63 11.543,11.521 13.449,12.895C12.551,12.726 11.609,12.635 10.637,12.635C4.718,12.635 0,15.977 0,20.172C0,24.364 4.693,27.769 10.614,27.769C15.653,27.769 19.877,25.305 21.027,21.985C22.148,25.305 26.299,27.769 31.339,27.769C37.259,27.769 42.054,24.365 42.054,20.172C42.054,15.977 37.281,12.635 31.364,12.635ZM10.614,25.836C8.163,25.836 5.893,25.18 4.211,23.972C2.757,22.929 1.93,21.58 1.93,20.172C1.938,18.281 3.373,17.001 4.212,16.405C5.898,15.216 8.179,14.567 10.638,14.563C13.105,14.567 15.395,15.215 17.092,16.41C17.942,17.008 19.397,18.285 19.405,20.172C19.376,23.32 15.326,25.829 10.614,25.836ZM31.338,25.836C28.89,25.836 26.618,25.18 24.938,23.972C23.481,22.929 22.652,21.58 22.652,20.172C22.658,18.281 24.098,17.004 24.94,16.405C26.622,15.216 28.905,14.567 31.363,14.563C33.83,14.567 36.119,15.215 37.821,16.41C38.67,17.008 40.119,18.288 40.123,20.172C40.1,23.32 36.051,25.829 31.338,25.836ZM15.992,17.072C14.634,16.251 12.733,15.734 10.61,15.734C8.485,15.734 6.595,16.251 5.247,17.068C3.896,17.89 3.103,18.989 3.1,20.172C3.103,21.359 3.892,22.474 5.24,23.306C6.582,24.129 8.469,24.657 10.594,24.661C12.719,24.656 14.624,24.129 15.986,23.302C17.351,22.474 18.157,21.359 18.161,20.176C18.156,18.997 17.354,17.894 15.992,17.072ZM36.773,17.072C35.413,16.251 33.511,15.734 31.387,15.734C29.264,15.734 27.371,16.251 26.026,17.068C24.675,17.889 23.884,18.989 23.882,20.175C23.884,21.358 24.671,22.473 26.02,23.305C27.363,24.128 29.249,24.656 31.372,24.66C33.495,24.655 35.402,24.128 36.766,23.301C38.131,22.473 38.937,21.358 38.939,20.175C38.937,18.997 38.135,17.894 36.773,17.072ZM21.03,18.364C20.566,17.027 19.602,15.833 18.287,14.888C19.15,15.049 20.055,15.135 20.988,15.135C21.948,15.135 22.875,15.045 23.759,14.879C22.448,15.825 21.485,17.02 21.03,18.364ZM12.31,7.536C12.317,5.645 13.753,4.368 14.595,3.773C16.279,2.576 18.561,1.931 21.019,1.931C23.485,1.931 25.775,2.579 27.472,3.773C28.321,4.372 29.774,5.651 29.781,7.536C29.753,10.688 25.706,13.197 20.993,13.204C18.545,13.204 16.273,12.549 14.596,11.343C13.135,10.296 12.31,8.947 12.31,7.536ZM15.653,10.676C16.996,11.505 18.883,12.032 21.007,12.032C23.128,12.032 25.033,11.505 26.396,10.676C27.764,9.848 28.57,8.73 28.573,7.55C28.57,6.367 27.769,5.26 26.407,4.439C25.049,3.619 23.149,3.103 21.022,3.099C18.899,3.103 17.009,3.619 15.66,4.439C14.31,5.261 13.517,6.364 13.514,7.547C13.517,8.733 14.308,9.848 15.653,10.676Z" style="fill:rgb(237,29,36);"/>
    </g>
</svg>
