<svg xmlns="http://www.w3.org/2000/svg" height="84" width="84" viewBox="0 0 84.000001 84.000001"><ellipse rx="32.616" ry="32.483" transform="matrix(1.27343 -.10626 .10714 1.27335 -1.447 -1.447)" cy="36.71" cx="31.03" fill="#691222"/><circle transform="rotate(48.968 1.166 -3.113) scale(1.2926)" cy="-3.327" cx="47.968" r="29.536" fill="#e7004f"/><path fill-rule="evenodd" fill="#fff" d="M47.846 22.808h4.4c-.118 1.993-.115 3.99-.122 5.986-.086 2.263-.031 4.53-.05 6.793-.018 1.024.067 2.048.016 3.071-.034 3.9-.035 7.803.158 11.7-1.468 0-2.937.005-4.407 0 .254-2.834.135-5.68.161-8.517-.107-3.378-.035-6.756-.055-10.134-.01-2.968.05-5.935-.101-8.899zm9.075 8.415c1.16-.814 2.61-1.146 4.018-1.136 1.324-.003 2.695.2 3.854.866 1.25.686 2.135 1.888 2.638 3.178.716 1.79.917 3.729.983 5.636.016 2.314-.193 4.632 0 6.945.035.264.077.534.194.777.138.22.368.434.648.436.43-.035.821-.227 1.156-.482v2.906c-.882.569-1.956.925-3.019.704-1.172-.2-2.104-.99-2.925-1.778-1.305 1.19-2.994 2.192-4.848 2.057-1.928-.015-3.783-1.12-4.725-2.764-.688-1.16-.942-2.54-.849-3.87.066-1.274.409-2.564 1.167-3.614a5.932 5.932 0 0 1 2.262-1.935c1.04-.537 2.251-.67 3.409-.583 1.021.034 2.007.384 2.865.912.01-1.47.05-3.102-.829-4.373-.292-.492-.814-.814-1.351-.994-.894-.2-1.95-.126-2.65.522-.727.68-.985 1.674-1.097 2.621-1.275.011-2.549.013-3.824.003.05-.96.131-1.93.473-2.837.446-1.28 1.29-2.452 2.457-3.194zm2.036 10.994c.51-.43 1.216-.545 1.87-.526 1.008.052 1.992.311 2.915.706 0 1.253.023 2.506.003 3.762-.005.19-.194.31-.31.445-.897.791-2.086 1.332-3.314 1.266-.727-.097-1.431-.522-1.762-1.178-.402-.676-.45-1.493-.437-2.257.054-.823.353-1.69 1.035-2.216zM42.27 31.171a6.8 6.8 0 0 1 2.479 2.37c1.022 1.628 1.428 3.548 1.563 5.433.089 1.784.092 3.598-.349 5.344-.384 1.738-1.198 3.452-2.58 4.643-1.55 1.351-3.697 1.832-5.727 1.77-2.222-.045-4.422-1.065-5.781-2.799-1.27-1.56-1.883-3.531-2.11-5.49-.138-1.122-.11-2.252-.066-3.376.192-2.219.89-4.468 2.383-6.188 1.33-1.605 3.378-2.598 5.485-2.712 1.62-.092 3.292.21 4.708 1.005zm-4.929 3.147c.711-.067 1.474-.081 2.127.243.58.238 1.024.7 1.366 1.2.615 1.014.814 2.204.916 3.36.098 1.736.098 3.532-.535 5.181-.304.744-.743 1.487-1.45 1.926-1 .67-2.4.64-3.42.021-.784-.442-1.29-1.228-1.62-2.03-.415-1.028-.513-2.15-.576-3.244-.057-1.351.046-2.724.445-4.023.246-.822.71-1.594 1.41-2.12a3.471 3.471 0 0 1 1.342-.512zm-23.748-3.531c1.559.003 3.117-.005 4.674.003-.242 1.778-.107 3.577-.193 5.362-.072 2.257.015 4.514.041 6.768.016 1.044.261 2.127.918 2.975.489.55 1.232.92 1.989.841 1.12-.028 2.018-.814 2.752-1.563.021-2.064-.019-4.128.015-6.192.097-2.728.207-5.47-.061-8.192 1.594-.004 3.186-.004 4.78 0-.254 2.273-.38 4.56-.435 6.846.016 2.748-.046 5.5.046 8.249.006 2.724.135 5.45.031 8.172-.163 2.173-1.003 4.44-2.832 5.793-1.024.805-2.321 1.177-3.603 1.347H19.95c-1.167-.158-2.36-.445-3.327-1.136-1.02-.648-1.734-1.667-2.195-2.752-.73-1.735-.762-3.648-.725-5.493h4.29c.016 1.246-.08 2.56.433 3.731.23.522.627 1.004 1.175 1.222.513.215 1.078.246 1.628.208.537-.073 1.118-.223 1.486-.645.498-.572.676-1.332.759-2.058.2-1.658.218-3.337.187-5.006-.714.476-1.463.925-2.308 1.137-1.339.353-2.82.445-4.123-.093-.73-.287-1.379-.752-1.942-1.282-.264-.236-.455-.537-.62-.847-.563-1.183-.744-2.488-.882-3.773-.332-3.15.026-6.313-.025-9.47-.007-1.268.005-2.544-.168-3.805v-.347z"/></svg>
